<svg xmlns="http://www.w3.org/2000/svg" fill="none" viewBox="0 0 1040 353"><ellipse cx="208" cy="196" rx="208" ry="157" class="fills" fill="#0ea5e9"/><ellipse cx="208" cy="196" rx="181" ry="118" class="fills" fill="#fff"/><circle cx="208" cy="196" r="86" class="fills" fill="#0ea5e9"/><path d="M212.828 167.937 376.371 4.853c6.489-6.471 17.008-6.471 23.496 0l24.267 24.198c6.488 6.47 6.488 16.96 0 23.43L220.896 255.147c-6.488 6.471-17.008 6.471-23.496 0L96.866 154.896c-6.488-6.47-6.488-16.96 0-23.43l21.353-21.292c6.53-6.511 17.08-6.628 23.753-.262l60.937 58.134a7.108 7.108 0 0 0 9.919-.109Zm780.474 106.062a78.342 78.342 0 0 1-16.204-1.712 55.34 55.34 0 0 1-14.925-5.564c-4.691-2.711-8.6-6.35-11.727-10.916-2.415-3.525-4.194-7.73-5.337-12.616-.577-2.465 1.2-4.506 3.724-4.506h17.086c2.524 0 5.215 1.99 6.622 4.086a16.885 16.885 0 0 0 3.278 3.619c2.558 1.854 5.472 3.281 8.742 4.28 3.411.857 6.751 1.285 10.021 1.285 1.99 0 4.122-.142 6.396-.425 2.417-.29 4.621-.858 6.61-1.712 2.133-.856 3.838-2.069 5.118-3.639 1.279-1.712 1.919-3.924 1.919-6.634 0-2.569-.711-4.566-2.132-5.993-1.422-1.57-3.341-2.783-5.757-3.639-2.417-.998-5.331-1.784-8.742-2.355a4061.45 4061.45 0 0 0-19.616-4.066c-6.966-1.57-13.007-3.995-18.124-7.277-2.132-1.284-3.98-2.782-5.544-4.494a30.92 30.92 0 0 1-4.051-5.565 35.33 35.33 0 0 1-2.345-6.849c-.423-2.425-.638-5.065-.638-7.919 0-5.992 1.208-11.058 3.625-15.196 2.558-4.28 5.899-7.704 10.021-10.273 4.264-2.71 9.097-4.708 14.499-5.992 5.401-1.285 10.945-1.927 16.631-1.927 7.676 0 14.641 1.213 20.895 3.639 6.254 2.425 11.443 6.135 15.565 11.129 3.398 3.979 5.713 8.82 6.945 14.521.537 2.475-1.315 4.527-3.838 4.527h-15.595c-2.523 0-4.907-2.123-6.314-4.206-1.137-1.683-2.758-3.135-4.865-4.355-3.553-2.141-8.102-3.21-13.646-3.21-1.99 0-4.051.215-6.184.64a23.285 23.285 0 0 0-6.183 1.712c-1.847.713-3.411 1.855-4.69 3.425-1.137 1.57-1.706 3.496-1.706 5.778 0 2.14.497 3.995 1.493 5.565 1.137 1.57 2.772 2.925 4.904 4.066 2.275 1 4.904 1.856 7.889 2.569 4.833.999 9.879 1.998 15.139 2.996 5.259.999 9.808 1.998 13.646 2.996 4.548 1.285 8.671 3.14 12.366 5.565 3.696 2.283 6.539 5.35 8.529 9.203 2.132 3.71 3.198 8.49 3.198 14.34 0 6.849-1.422 12.556-4.264 17.122-2.701 4.566-6.326 8.133-10.874 10.701-4.549 2.568-9.595 4.424-15.139 5.565-5.544 1.141-11.016 1.712-16.421 1.711Zm-116.373-.315c-11.961 0-21.748-2.609-29.36-7.826-3.471-2.379-8.316-7.471-10.549-11.192-4.918-8.196-7.376-19.128-7.376-32.799V165.95c0-4.44 3.341-8.04 7.462-8.04h9.624c4.121 0 7.462 3.6 7.462 8.04v54.183c0 6.071.738 11.346 2.214 15.827 1.61 4.48 4.091 7.949 7.445 10.406 3.487 2.313 7.847 3.469 13.079 3.469 5.634 0 10.061-1.228 13.28-3.685 3.353-2.602 5.701-6.143 7.043-10.624 1.341-4.48 2.012-9.611 2.012-15.393v-54.182c0-4.441 3.34-8.04 7.462-8.04h9.624c4.121 0 7.462 3.599 7.462 8.04v55.917c0 15.667-3.178 27.689-9.533 36.067-1.506 1.985-4.341 4.837-6.257 6.36-7.867 6.259-18.232 9.389-31.094 9.389Zm-116.844-.001c-11.424 0-21.037-2.35-28.838-7.049-7.802-4.842-13.723-11.605-17.763-20.292-4.04-8.687-6.06-18.726-6.06-30.118s2.09-21.432 6.27-30.118c4.179-8.829 10.309-15.736 18.389-20.72 8.08-4.983 17.902-7.476 29.465-7.476 8.498 0 16.021 1.496 22.568 4.486 6.687 2.991 12.051 7.405 16.091 13.244 3.454 4.707 5.861 10.387 7.222 17.04.487 2.368-1.2 4.32-3.568 4.32h-16.502c-2.368 0-4.821-1.902-5.888-4.061-1.659-3.358-3.912-5.921-6.758-7.687-3.762-2.563-8.289-3.845-13.583-3.845-7.105 0-12.747 1.78-16.927 5.34-4.04 3.418-6.965 7.761-8.776 13.03-1.811 5.269-2.717 10.751-2.717 16.447 0 5.981.976 11.606 2.926 16.875 1.95 5.126 4.945 9.256 8.986 12.389 4.179 3.133 9.543 4.699 16.09 4.699 5.294 0 10.031-1.21 14.21-3.631 3.125-1.752 5.447-4.285 6.968-7.602 1.004-2.192 3.311-4.146 5.679-4.146h17.337c2.368 0 4.091 1.957 3.623 4.329-1.341 6.798-3.976 12.618-7.903 17.459-4.597 5.696-10.449 9.968-17.554 12.816-7.105 2.848-14.767 4.272-22.987 4.271Zm-129.972.001c-11.779 0-21.958-2.35-30.537-7.049-8.434-4.699-14.977-11.392-19.631-20.079-4.508-8.686-6.762-18.868-6.762-30.545 0-11.82 2.327-22.002 6.98-30.546 4.653-8.686 11.197-15.45 19.631-20.292 8.434-4.842 18.54-7.263 30.318-7.263 11.633 0 21.667 2.421 30.101 7.263 8.434 4.842 14.905 11.677 19.412 20.506 4.508 8.687 6.762 18.94 6.762 30.759 0 11.535-2.254 21.645-6.762 30.332-4.362 8.544-10.76 15.166-19.194 19.865-8.434 4.699-18.54 7.049-30.318 7.049Zm-.22-23.71c7.271 0 13.087-1.566 17.449-4.699 4.508-3.133 7.78-7.263 9.816-12.389 2.035-5.127 3.053-10.681 3.053-16.662s-1.018-11.605-3.053-16.874c-2.036-5.27-5.308-9.47-9.816-12.603-4.362-3.276-10.178-4.913-17.449-4.913-7.271 0-13.16 1.637-17.668 4.913-4.508 3.133-7.779 7.334-9.815 12.603-2.036 5.126-3.054 10.751-3.054 16.874 0 5.981 1.018 11.606 3.054 16.875 2.181 5.127 5.453 9.256 9.815 12.389 4.508 2.991 10.397 4.486 17.668 4.486ZM471 273.973V118.017a6 6 0 0 1 1.78-4.26 6.086 6.086 0 0 1 4.295-1.757l90.928.217c3.358.008 6.075 2.713 6.075 6.046v15.029a5.99 5.99 0 0 1-1.781 4.258 6.072 6.072 0 0 1-4.294 1.753l-61.005-.209a6.073 6.073 0 0 0-4.294 1.753 5.99 5.99 0 0 0-1.781 4.258v38.081c0 3.335 2.716 6.043 6.075 6.057l48.317.194c3.36.014 6.076 2.722 6.076 6.057v15.029a5.985 5.985 0 0 1-1.781 4.256 6.078 6.078 0 0 1-4.295 1.751l-48.317-.195a6.069 6.069 0 0 0-4.294 1.751 5.984 5.984 0 0 0-1.781 4.256v51.627c0 3.331-2.72 6.031-6.075 6.031h-17.772c-3.355 0-6.075-2.7-6.076-6.027Z" class="fills" fill="#0369a1"/></svg>
