<svg xmlns="http://www.w3.org/2000/svg" width="700" height="573.828"><path d="M0 322.423C0 177.115 181.211 71.018 326.519 71.018s326.519 106.097 326.519 251.405-181.211 251.405-326.519 251.405S0 467.731 0 322.423z" fill="#4DBA87"/><path d="M43.176 322.423c0-108.981 174.362-197.46 283.343-197.46 108.981 0 283.343 88.479 283.343 197.46 0 108.981-174.362 197.46-283.343 197.46-108.981 0-283.343-88.479-283.343-197.46z" fill="#FFF"/><circle cx="326.519" cy="322.423" r="135.999" fill="#4DBA87"/><path d="M325.265 289.449l-97.913-97.911-72.24 72.24L299.99 408.654l.166-.167 26.449 26.449L700 61.539 638.464 0 325.265 289.449z" fill="#1F593E"/></svg>