<svg version="1.0" xmlns="http://www.w3.org/2000/svg" viewBox="0 0 858 858"><path d="M766 77.9c-7.4 2.7-10.1 4.6-18.2 12.8-4.2 4.3-31.1 31.1-59.6 59.5l-52 51.7-4.8-2.4c-6.1-3-13.7-6.3-18.3-8-2-.7-4.9-1.9-6.6-2.6-1.6-.7-3.2-1.3-3.5-1.4-.5-.2-1.5-.5-5.5-2.1-1.1-.4-2.2-.8-2.5-.9-.3-.1-1.2-.4-2-.8-3.5-1.3-9.5-3-9.6-2.6 0 .2-.7-.1-1.5-.7-1.3-1-6-2.6-8.4-2.9-1-.1-7.8-2.2-10.5-3.2-.8-.3-1.9-.7-2.5-.8-.5-.2-4.8-1.3-9.5-2.5-9-2.3-11-2.8-15-3.6-1.4-.3-5.2-1.1-8.5-1.9-5.3-1.2-20.4-4-27.5-5.1-7.2-1.1-10-1.4-15-2-7.1-.8-10.5-1.2-10.5-1.4 0-.1-1.8-.3-4-.4-2.2-.2-8.7-.7-14.5-1.2-19.9-1.6-71.3-1-92.5 1.1-11 1.1-15.2 1.6-17.5 2-1.4.2-4.7.7-7.5 1-2.7.3-5.7.8-6.5 1-.8.2-3.3.6-5.5 1-4.4.6-9.9 1.5-13 2.2-1.1.2-3.1.6-4.5.9-8.4 1.7-24.8 5.6-33 7.9-5.2 1.4-9.9 2.7-10.5 2.9-3.5.9-17.1 5.2-23 7.3-3.8 1.4-7.4 2.6-8 2.7-1.3.4-4 1.5-8.5 3.4-1.9.9-3.9 1.7-4.5 1.7-1.1.2-6.6 2.6-14.2 6.1-2.8 1.3-5.5 2.4-5.8 2.4-.5 0-21.4 10.3-26.2 12.9-22.2 12.2-50.8 31-61.1 40.1-1 .8-4 3.3-6.7 5.5-8.2 6.6-10.3 8.5-21.9 20-10.5 10.4-19.6 20.3-24.7 27-1.3 1.6-2.8 3.5-3.4 4.1-.5.6-1.7 2.1-2.5 3.4-2.1 3.1-8.8 12.3-10 13.7-.6.7-1.5 2.4-2.2 3.8-.6 1.4-1.4 2.5-1.8 2.5-.4 0-1.5 1.8-2.5 4s-2.2 4-2.7 4c-.4 0-.8.4-.8.9s-2.7 5.9-6 12.2c-7.1 13.4-18 40-19.5 47.9-.2.8-.9 3.5-1.5 6-.7 2.5-1.4 5.4-1.6 6.5-.1 1.1-.3 2-.4 2-.4 0-3.7 19.1-4.7 27.5-1 8.3-1 41.3 0 50.4 1.7 14.8 8.4 46 10.7 49.1.4.5 1.3 3.2 2 6 .8 2.7 2 6.1 2.7 7.5.7 1.4 1.3 2.8 1.3 3.1 0 .4 1 2.8 2.2 5.5 1.2 2.7 2.3 5.1 2.3 5.4.4 1.4 4.9 10.6 5.4 11 .3.3 2.2 3.6 4.1 7.5 1.9 3.8 3.8 7.4 4.2 8 .5.5 3.9 5.8 7.7 11.6 3.8 5.9 7.6 11.5 8.4 12.5.8 1.1 4.6 5.7 8.3 10.4 12.6 15.8 31.1 34.6 47.4 48 3 2.5 5.7 4.8 5.8 5.3.2.4 1 .7 1.7.7s1.5.3 1.7.8c.1.4 2.8 2.6 5.8 4.9 3 2.4 6 4.7 6.7 5.3.7.5 1.6 1 2.2 1 .5 0 1.1.4 1.3.9.2.5 3.7 3 7.8 5.7 4.1 2.6 7.6 5.1 7.8 5.6.2.4.8.8 1.4.8.6 0 4.3 2 8.2 4.5 4 2.5 7.8 4.5 8.4 4.5.7 0 1.2.4 1.2 1 0 .5.6 1 1.3 1 .7 0 2.9 1.1 5 2.5 2 1.4 3.7 2.3 3.7 2.1 0-.3 2.1.7 4.7 2.2 8.4 4.9 51.6 23.6 56.8 24.6.6.1 5.3 1.6 10.5 3.3 14.1 4.6 22.6 7.2 25.2 7.7 1.3.3 2.4.5 2.6.7.1.1.5.2 1 .3 8.1 1.8 21.1 4.9 22.2 5.3.8.3 2.6.7 4 .9 1.4.2 4.5.8 7 1.3 4.1.9 7.6 1.5 15 2.7 1.4.2 4.1.7 6 1 1.9.4 4.9.8 6.5.9 1.7.2 4.4.6 6 .9 3.7.6 12.3 1.6 19 2.2 2.8.2 8.2.7 12 1.1 15.9 1.5 77.4.8 91.7-1.1 1.8-.3 6-.8 9.3-1.1 6.2-.7 10-1.1 16-2 1.9-.3 5.2-.7 7.3-1 2-.3 4.8-.8 6.2-1.2 1.4-.3 3.5-.7 4.6-.9 5.9-.7 17.9-3 17.9-3.4 0-.1.9-.3 2-.4 1.1-.2 5.2-1.1 9-2 3.9-1 7.9-1.9 9-2.2 4.2-.8 30.3-8.6 37-11.1 3.9-1.4 7.5-2.6 8-2.7.6-.2 1.9-.6 3-1.1 1.1-.4 6.1-2.3 11-4.2 9.1-3.6 12-4.8 23-9.9 3.3-1.5 6.2-2.8 6.5-2.9.8-.2 15.1-7.4 19.5-9.9 15.3-8.4 22.2-12.4 24-13.8 2.9-2.2 11.8-7.8 12.5-7.8.5 0 1-.4 1.2-.8.2-.4 3.2-2.8 6.8-5.2 3.6-2.5 6.7-4.7 7-5.1.3-.3 2.3-1.8 4.5-3.4 2.2-1.7 4.2-3.2 4.5-3.5.3-.3 2.7-2.4 5.4-4.5 9.7-7.8 36.6-33.5 36.6-35 0-.3 1-1.6 2.3-2.8 3.6-3.5 14-16.5 20.1-25.2 3.1-4.4 5.9-8.5 6.4-9.1 6.5-9.2 26.2-46.9 26.2-50.3 0-.4 1.1-3.6 2.5-7.2 1.4-3.5 2.7-7.3 3-8.4.2-1.1.9-3.6 1.5-5.5s1.3-4.2 1.5-5l2-8c1.6-6.6 1.8-7.5 3-14.5.3-2.2.9-5.4 1.2-7 .8-4.3 1.2-9.5 1.7-22 .3-6.1.6-11.2.7-11.5.1-.3 0-1-.1-1.5-.1-.6-.4-5.5-.6-11-.5-12.3-1-17.3-1.7-20.5-.4-1.4-.8-4.1-1.1-6-2.6-20.6-13.5-53.3-24.6-74-1.3-2.5-2.4-4.7-2.5-5-.3-2.2-18.2-30.2-19.7-30.8-.4-.2-.8-.8-.8-1.3 0-1-8.4-12.1-13.6-17.9-1.7-1.9-5.5-6.2-8.4-9.5-2.8-3.3-6.3-7-7.6-8.2l-2.5-2.3 51.3-51.3c28.2-28.3 51.8-52 52.3-52.8 3.6-5 5.4-11.8 5.1-19.1-.7-13.7-1.7-15.1-33.2-46.3-15-14.8-28-27.6-29-28.4-6.4-5.4-20.5-7.4-29.4-4.2z"/></svg>
